<svg xmlns="http://www.w3.org/2000/svg" viewBox="0 0 800 60" fill="none">
  <defs>
    <linearGradient id="am" x1="0" y1="0" x2="800" y2="0" gradientUnits="userSpaceOnUse">
      <stop offset="0%" stop-color="#E2E8F0"/>
      <stop offset="50%" stop-color="#22D3EE"/>
      <stop offset="100%" stop-color="#E2E8F0"/>
    </linearGradient>
  </defs>

  <!-- AM Signal Path -->
  <path d="M0,30.0 L2,44.0 L4,52.6 L6,52.5 L8,43.8 L10,30.0 L12,16.3 L14,7.9 L16,8.0 L18,16.5 L20,30.0 L22,43.4 L24,51.6 L26,51.5 L28,43.2 L30,30.0 L32,16.9 L34,9.0 L36,9.1 L38,17.1 L40,30.0 L42,42.7 L44,50.5 L46,50.4 L48,42.6 L50,30.0 L52,17.6 L54,10.0 L56,10.1 L58,17.8 L60,30.0 L62,42.1 L64,49.5 L66,49.4 L68,41.9 L70,30.0 L72,18.2 L74,11.0 L76,11.2 L78,18.4 L80,30.0 L82,41.5 L84,48.4 L86,48.3 L88,41.3 L90,30.0 L92,18.9 L94,12.1 L96,12.2 L98,19.1 L100,30.0 L102,40.8 L104,47.4 L106,47.3 L108,40.6 L110,30.0 L112,19.5 L114,13.1 L116,13.2 L118,19.7 L120,30.0 L122,40.2 L124,46.3 L126,46.2 L128,40.0 L130,30.0 L132,20.2 L134,14.2 L136,14.3 L138,20.4 L140,30.0 L142,39.5 L144,45.3 L146,45.2 L148,39.3 L150,30.0 L152,20.8 L154,15.2 L156,15.3 L158,21.0 L160,30.0 L162,38.9 L164,44.2 L166,44.1 L168,38.7 L170,30.0 L172,21.5 L174,16.3 L176,16.4 L178,21.6 L180,30.0 L182,38.2 L184,43.2 L186,43.1 L188,38.0 L190,30.0 L192,22.1 L194,17.3 L196,17.4 L198,22.3 L200,30.0 L202,37.6 L204,42.2 L206,42.0 L208,37.4 L210,30.0 L212,22.7 L214,18.4 L216,18.5 L218,22.9 L220,30.0 L222,36.9 L224,41.1 L226,41.0 L228,36.7 L230,30.0 L232,23.4 L234,19.4 L236,19.5 L238,23.6 L240,30.0 L242,36.3 L244,40.1 L246,40.0 L248,36.1 L250,30.0 L252,24.0 L254,20.5 L256,20.6 L258,24.2 L260,30.0 L262,35.6 L264,39.0 L266,38.9 L268,35.4 L270,30.0 L272,24.7 L274,21.5 L276,21.6 L278,24.9 L280,30.0 L282,35.0 L284,38.0 L286,37.9 L288,34.8 L290,30.0 L292,25.3 L294,22.6 L296,22.7 L298,25.5 L300,30.0 L302,34.3 L304,36.9 L306,36.8 L308,34.1 L310,30.0 L312,26.0 L314,23.6 L316,23.7 L318,26.2 L320,30.0 L322,33.7 L324,35.9 L326,35.8 L328,33.5 L330,30.0 L332,26.6 L334,24.6 L336,24.8 L338,26.8 L340,30.0 L342,33.1 L344,34.8 L346,34.7 L348,32.9 L350,30.0 L352,27.3 L354,25.7 L356,25.8 L358,27.5 L360,30.0 L362,32.4 L364,33.8 L366,33.7 L368,32.2 L370,30.0 L372,27.9 L374,26.7 L376,26.8 L378,28.1 L380,30.0 L382,31.8 L384,32.7 L386,32.6 L388,31.6 L390,30.0 L392,28.6 L394,27.8 L396,27.9 L398,28.8 L400,30.0 L402,31.2 L404,32.1 L406,32.2 L408,31.4 L410,30.0 L412,28.4 L414,27.4 L416,27.3 L418,28.2 L420,30.0 L422,31.9 L424,33.2 L426,33.3 L428,32.1 L430,30.0 L432,27.8 L434,26.3 L436,26.2 L438,27.6 L440,30.0 L442,32.5 L444,34.2 L446,34.3 L448,32.7 L450,30.0 L452,27.1 L454,25.3 L456,25.2 L458,26.9 L460,30.0 L462,33.2 L464,35.2 L466,35.4 L468,33.4 L470,30.0 L472,26.5 L474,24.2 L476,24.1 L478,26.3 L480,30.0 L482,33.8 L484,36.3 L486,36.4 L488,34.0 L490,30.0 L492,25.9 L494,23.2 L496,23.1 L498,25.7 L500,30.0 L502,34.5 L504,37.3 L506,37.4 L508,34.7 L510,30.0 L512,25.2 L514,22.1 L516,22.0 L518,25.0 L520,30.0 L522,35.1 L524,38.4 L526,38.5 L528,35.3 L530,30.0 L532,24.6 L534,21.1 L536,21.0 L538,24.4 L540,30.0 L542,35.8 L544,39.4 L546,39.5 L548,36.0 L550,30.0 L552,23.9 L554,20.0 L556,19.9 L558,23.7 L560,30.0 L562,36.4 L564,40.5 L566,40.6 L568,36.6 L570,30.0 L572,23.3 L574,19.0 L576,18.9 L578,23.1 L580,30.0 L582,37.1 L584,41.5 L586,41.6 L588,37.3 L590,30.0 L592,22.6 L594,18.0 L596,17.8 L598,22.4 L600,30.0 L602,37.7 L604,42.6 L606,42.7 L608,37.9 L610,30.0 L612,22.0 L614,16.9 L616,16.8 L618,21.8 L620,30.0 L622,38.4 L624,43.6 L626,43.7 L628,38.5 L630,30.0 L632,21.3 L634,15.9 L636,15.8 L638,21.1 L640,30.0 L642,39.0 L644,44.7 L646,44.8 L648,39.2 L650,30.0 L652,20.7 L654,14.8 L656,14.7 L658,20.5 L660,30.0 L662,39.6 L664,45.7 L666,45.8 L668,39.8 L670,30.0 L672,20.0 L674,13.8 L676,13.7 L678,19.8 L680,30.0 L682,40.3 L684,46.8 L686,46.9 L688,40.5 L690,30.0 L692,19.4 L694,12.7 L696,12.6 L698,19.2 L700,30.0 L702,40.9 L704,47.8 L706,47.9 L708,41.1 L710,30.0 L712,18.7 L714,11.7 L716,11.6 L718,18.5 L720,30.0 L722,41.6 L724,48.8 L726,49.0 L728,41.8 L730,30.0 L732,18.1 L734,10.6 L736,10.5 L738,17.9 L740,30.0 L742,42.2 L744,49.9 L746,50.0 L748,42.4 L750,30.0 L752,17.4 L754,9.6 L756,9.5 L758,17.3 L760,30.0 L762,42.9 L764,50.9 L766,51.0 L768,43.1 L770,30.0 L772,16.8 L774,8.5 L776,8.4 L778,16.6 L780,30.0 L782,43.5 L784,52.0 L786,52.1 L788,43.7 L790,30.0 L792,16.2 L794,7.5 L796,7.4 L798,16.0 L800,30.0" stroke="url(#am)" stroke-width="1.5" stroke-linecap="round" fill="none">
    <animate attributeName="d" 
             values="M0,30.0 L2,44.0 L4,52.6 L6,52.5 L8,43.8 L10,30.0 L12,16.3 L14,7.9 L16,8.0 L18,16.5 L20,30.0 L22,43.4 L24,51.6 L26,51.5 L28,43.2 L30,30.0 L32,16.9 L34,9.0 L36,9.1 L38,17.1 L40,30.0 L42,42.7 L44,50.5 L46,50.4 L48,42.6 L50,30.0 L52,17.6 L54,10.0 L56,10.1 L58,17.8 L60,30.0 L62,42.1 L64,49.5 L66,49.4 L68,41.9 L70,30.0 L72,18.2 L74,11.0 L76,11.2 L78,18.4 L80,30.0 L82,41.5 L84,48.4 L86,48.3 L88,41.3 L90,30.0 L92,18.9 L94,12.1 L96,12.2 L98,19.1 L100,30.0 L102,40.8 L104,47.4 L106,47.3 L108,40.6 L110,30.0 L112,19.5 L114,13.1 L116,13.2 L118,19.7 L120,30.0 L122,40.2 L124,46.3 L126,46.2 L128,40.0 L130,30.0 L132,20.2 L134,14.2 L136,14.3 L138,20.4 L140,30.0 L142,39.5 L144,45.3 L146,45.2 L148,39.3 L150,30.0 L152,20.8 L154,15.2 L156,15.3 L158,21.0 L160,30.0 L162,38.9 L164,44.2 L166,44.1 L168,38.7 L170,30.0 L172,21.5 L174,16.3 L176,16.4 L178,21.6 L180,30.0 L182,38.2 L184,43.2 L186,43.1 L188,38.0 L190,30.0 L192,22.1 L194,17.3 L196,17.4 L198,22.3 L200,30.0 L202,37.6 L204,42.2 L206,42.0 L208,37.4 L210,30.0 L212,22.7 L214,18.4 L216,18.5 L218,22.9 L220,30.0 L222,36.9 L224,41.1 L226,41.0 L228,36.7 L230,30.0 L232,23.4 L234,19.4 L236,19.5 L238,23.6 L240,30.0 L242,36.3 L244,40.1 L246,40.0 L248,36.1 L250,30.0 L252,24.0 L254,20.5 L256,20.6 L258,24.2 L260,30.0 L262,35.6 L264,39.0 L266,38.9 L268,35.4 L270,30.0 L272,24.7 L274,21.5 L276,21.6 L278,24.9 L280,30.0 L282,35.0 L284,38.0 L286,37.9 L288,34.8 L290,30.0 L292,25.3 L294,22.6 L296,22.7 L298,25.5 L300,30.0 L302,34.3 L304,36.9 L306,36.8 L308,34.1 L310,30.0 L312,26.0 L314,23.6 L316,23.7 L318,26.2 L320,30.0 L322,33.7 L324,35.9 L326,35.8 L328,33.5 L330,30.0 L332,26.6 L334,24.6 L336,24.8 L338,26.8 L340,30.0 L342,33.1 L344,34.8 L346,34.7 L348,32.9 L350,30.0 L352,27.3 L354,25.7 L356,25.8 L358,27.5 L360,30.0 L362,32.4 L364,33.8 L366,33.7 L368,32.2 L370,30.0 L372,27.9 L374,26.7 L376,26.8 L378,28.1 L380,30.0 L382,31.8 L384,32.7 L386,32.6 L388,31.6 L390,30.0 L392,28.6 L394,27.8 L396,27.9 L398,28.8 L400,30.0 L402,31.2 L404,32.1 L406,32.2 L408,31.4 L410,30.0 L412,28.4 L414,27.4 L416,27.3 L418,28.2 L420,30.0 L422,31.9 L424,33.2 L426,33.3 L428,32.1 L430,30.0 L432,27.8 L434,26.3 L436,26.2 L438,27.6 L440,30.0 L442,32.5 L444,34.2 L446,34.3 L448,32.7 L450,30.0 L452,27.1 L454,25.3 L456,25.2 L458,26.9 L460,30.0 L462,33.2 L464,35.2 L466,35.4 L468,33.4 L470,30.0 L472,26.5 L474,24.2 L476,24.1 L478,26.3 L480,30.0 L482,33.8 L484,36.3 L486,36.4 L488,34.0 L490,30.0 L492,25.9 L494,23.2 L496,23.1 L498,25.7 L500,30.0 L502,34.5 L504,37.3 L506,37.4 L508,34.7 L510,30.0 L512,25.2 L514,22.1 L516,22.0 L518,25.0 L520,30.0 L522,35.1 L524,38.4 L526,38.5 L528,35.3 L530,30.0 L532,24.6 L534,21.1 L536,21.0 L538,24.4 L540,30.0 L542,35.8 L544,39.4 L546,39.5 L548,36.0 L550,30.0 L552,23.9 L554,20.0 L556,19.9 L558,23.7 L560,30.0 L562,36.4 L564,40.5 L566,40.6 L568,36.6 L570,30.0 L572,23.3 L574,19.0 L576,18.9 L578,23.1 L580,30.0 L582,37.1 L584,41.5 L586,41.6 L588,37.3 L590,30.0 L592,22.6 L594,18.0 L596,17.8 L598,22.4 L600,30.0 L602,37.7 L604,42.6 L606,42.7 L608,37.9 L610,30.0 L612,22.0 L614,16.9 L616,16.8 L618,21.8 L620,30.0 L622,38.4 L624,43.6 L626,43.7 L628,38.5 L630,30.0 L632,21.3 L634,15.9 L636,15.8 L638,21.1 L640,30.0 L642,39.0 L644,44.7 L646,44.8 L648,39.2 L650,30.0 L652,20.7 L654,14.8 L656,14.7 L658,20.5 L660,30.0 L662,39.6 L664,45.7 L666,45.8 L668,39.8 L670,30.0 L672,20.0 L674,13.8 L676,13.7 L678,19.8 L680,30.0 L682,40.3 L684,46.8 L686,46.9 L688,40.5 L690,30.0 L692,19.4 L694,12.7 L696,12.6 L698,19.2 L700,30.0 L702,40.9 L704,47.8 L706,47.9 L708,41.1 L710,30.0 L712,18.7 L714,11.7 L716,11.6 L718,18.5 L720,30.0 L722,41.6 L724,48.8 L726,49.0 L728,41.8 L730,30.0 L732,18.1 L734,10.6 L736,10.5 L738,17.9 L740,30.0 L742,42.2 L744,49.9 L746,50.0 L748,42.4 L750,30.0 L752,17.4 L754,9.6 L756,9.5 L758,17.3 L760,30.0 L762,42.9 L764,50.9 L766,51.0 L768,43.1 L770,30.0 L772,16.8 L774,8.5 L776,8.4 L778,16.6 L780,30.0 L782,43.5 L784,52.0 L786,52.1 L788,43.7 L790,30.0 L792,16.2 L794,7.5 L796,7.4 L798,16.0 L800,30.0;M0,6.0 L2,10.7 L4,22.7 L6,37.3 L8,49.1 L10,53.5 L12,48.9 L14,37.2 L16,22.9 L18,11.4 L20,7.1 L22,11.6 L24,23.0 L26,37.0 L28,48.2 L30,52.4 L32,48.0 L34,36.8 L36,23.2 L38,12.3 L40,8.2 L42,12.5 L44,23.3 L46,36.6 L48,47.3 L50,51.2 L52,47.1 L54,36.5 L56,23.5 L58,13.2 L60,9.3 L62,13.3 L64,23.7 L66,36.3 L68,46.4 L70,50.1 L72,46.2 L74,36.2 L76,23.9 L78,14.1 L80,10.4 L82,14.2 L84,24.0 L86,36.0 L88,45.5 L90,49.0 L92,45.3 L94,35.8 L96,24.2 L98,14.9 L100,11.5 L102,15.1 L104,24.4 L106,35.6 L108,44.6 L110,48.0 L112,44.4 L114,35.5 L116,24.6 L118,15.8 L120,12.6 L122,16.0 L124,24.7 L126,35.3 L128,43.7 L130,46.9 L132,43.5 L134,35.1 L136,24.9 L138,16.7 L140,13.7 L142,16.9 L144,25.0 L146,34.9 L148,42.8 L150,45.8 L152,42.7 L154,34.8 L156,25.2 L158,17.6 L160,14.8 L162,17.8 L164,25.4 L166,34.6 L168,41.9 L170,44.6 L172,41.8 L174,34.5 L176,25.6 L178,18.5 L180,15.9 L182,18.7 L184,25.7 L186,34.3 L188,41.1 L190,43.5 L192,40.9 L194,34.1 L196,25.9 L198,19.4 L200,17.0 L202,19.6 L204,26.1 L206,33.9 L208,40.2 L210,42.5 L212,40.0 L214,33.8 L216,26.3 L218,20.3 L220,18.1 L222,20.5 L224,26.4 L226,33.6 L228,39.3 L230,41.4 L232,39.1 L234,33.4 L236,26.6 L238,21.2 L240,19.2 L242,21.4 L244,26.7 L246,33.2 L248,38.4 L250,40.2 L252,38.2 L254,33.1 L256,26.9 L258,22.1 L260,20.3 L262,22.2 L264,27.1 L266,32.9 L268,37.5 L270,39.1 L272,37.3 L274,32.8 L276,27.3 L278,23.0 L280,21.4 L282,23.1 L284,27.4 L286,32.6 L288,36.6 L290,38.0 L292,36.4 L294,32.4 L296,27.6 L298,23.8 L300,22.5 L302,24.0 L304,27.8 L306,32.2 L308,35.7 L310,37.0 L312,35.5 L314,32.1 L316,28.0 L318,24.7 L320,23.6 L322,24.9 L324,28.1 L326,31.9 L328,34.8 L330,35.9 L332,34.6 L334,31.7 L336,28.3 L338,25.6 L340,24.7 L342,25.8 L344,28.4 L346,31.5 L348,33.9 L350,34.8 L352,33.8 L354,31.4 L356,28.6 L358,26.5 L360,25.8 L362,26.7 L364,28.8 L366,31.2 L368,33.0 L370,33.6 L372,32.9 L374,31.1 L376,29.0 L378,27.4 L380,26.9 L382,27.6 L384,29.1 L386,30.9 L388,32.2 L390,32.5 L392,32.0 L394,30.7 L396,29.3 L398,28.3 L400,28.0 L402,28.3 L404,29.3 L406,30.7 L408,32.0 L410,32.5 L412,32.2 L414,30.9 L416,29.1 L418,27.6 L420,26.9 L422,27.4 L424,29.0 L426,31.1 L428,32.9 L430,33.6 L432,33.0 L434,31.2 L436,28.8 L438,26.7 L440,25.8 L442,26.5 L444,28.6 L446,31.4 L448,33.8 L450,34.8 L452,33.9 L454,31.5 L456,28.4 L458,25.8 L460,24.7 L462,25.6 L464,28.3 L466,31.7 L468,34.6 L470,35.9 L472,34.8 L474,31.9 L476,28.1 L478,24.9 L480,23.6 L482,24.7 L484,28.0 L486,32.1 L488,35.5 L490,37.0 L492,35.7 L494,32.2 L496,27.8 L498,24.0 L500,22.5 L502,23.8 L504,27.6 L506,32.4 L508,36.4 L510,38.0 L512,36.6 L514,32.6 L516,27.4 L518,23.1 L520,21.4 L522,23.0 L524,27.3 L526,32.8 L528,37.3 L530,39.1 L532,37.5 L534,32.9 L536,27.1 L538,22.2 L540,20.3 L542,22.1 L544,26.9 L546,33.1 L548,38.2 L550,40.2 L552,38.4 L554,33.2 L556,26.7 L558,21.4 L560,19.2 L562,21.2 L564,26.6 L566,33.4 L568,39.1 L570,41.4 L572,39.3 L574,33.6 L576,26.4 L578,20.5 L580,18.1 L582,20.3 L584,26.3 L586,33.8 L588,40.0 L590,42.5 L592,40.2 L594,33.9 L596,26.1 L598,19.6 L600,17.0 L602,19.4 L604,25.9 L606,34.1 L608,40.9 L610,43.5 L612,41.1 L614,34.3 L616,25.7 L618,18.7 L620,15.9 L622,18.5 L624,25.6 L626,34.5 L628,41.8 L630,44.6 L632,41.9 L634,34.6 L636,25.4 L638,17.8 L640,14.8 L642,17.6 L644,25.2 L646,34.8 L648,42.7 L650,45.8 L652,42.8 L654,34.9 L656,25.0 L658,16.9 L660,13.7 L662,16.7 L664,24.9 L666,35.1 L668,43.5 L670,46.9 L672,43.7 L674,35.3 L676,24.7 L678,16.0 L680,12.6 L682,15.8 L684,24.6 L686,35.5 L688,44.4 L690,48.0 L692,44.6 L694,35.6 L696,24.4 L698,15.1 L700,11.5 L702,14.9 L704,24.2 L706,35.8 L708,45.3 L710,49.0 L712,45.5 L714,36.0 L716,24.0 L718,14.2 L720,10.4 L722,14.1 L724,23.9 L726,36.2 L728,46.2 L730,50.1 L732,46.4 L734,36.3 L736,23.7 L738,13.3 L740,9.3 L742,13.2 L744,23.5 L746,36.5 L748,47.1 L750,51.2 L752,47.3 L754,36.6 L756,23.3 L758,12.5 L760,8.2 L762,12.3 L764,23.2 L766,36.8 L768,48.0 L770,52.4 L772,48.2 L774,37.0 L776,23.0 L778,11.6 L780,7.1 L782,11.4 L784,22.9 L786,37.2 L788,48.9 L790,53.5 L792,49.1 L794,37.3 L796,22.7 L798,10.7 L800,6.0;M0,30.0 L2,16.0 L4,7.4 L6,7.5 L8,16.2 L10,30.0 L12,43.7 L14,52.1 L16,52.0 L18,43.5 L20,30.0 L22,16.6 L24,8.4 L26,8.5 L28,16.8 L30,30.0 L32,43.1 L34,51.0 L36,50.9 L38,42.9 L40,30.0 L42,17.3 L44,9.5 L46,9.6 L48,17.4 L50,30.0 L52,42.4 L54,50.0 L56,49.9 L58,42.2 L60,30.0 L62,17.9 L64,10.5 L66,10.6 L68,18.1 L70,30.0 L72,41.8 L74,49.0 L76,48.8 L78,41.6 L80,30.0 L82,18.5 L84,11.6 L86,11.7 L88,18.7 L90,30.0 L92,41.1 L94,47.9 L96,47.8 L98,40.9 L100,30.0 L102,19.2 L104,12.6 L106,12.7 L108,19.4 L110,30.0 L112,40.5 L114,46.9 L116,46.8 L118,40.3 L120,30.0 L122,19.8 L124,13.7 L126,13.8 L128,20.0 L130,30.0 L132,39.8 L134,45.8 L136,45.7 L138,39.6 L140,30.0 L142,20.5 L144,14.7 L146,14.8 L148,20.7 L150,30.0 L152,39.2 L154,44.8 L156,44.7 L158,39.0 L160,30.0 L162,21.1 L164,15.8 L166,15.9 L168,21.3 L170,30.0 L172,38.5 L174,43.7 L176,43.6 L178,38.4 L180,30.0 L182,21.8 L184,16.8 L186,16.9 L188,22.0 L190,30.0 L192,37.9 L194,42.7 L196,42.6 L198,37.7 L200,30.0 L202,22.4 L204,17.8 L206,18.0 L208,22.6 L210,30.0 L212,37.3 L214,41.6 L216,41.5 L218,37.1 L220,30.0 L222,23.1 L224,18.9 L226,19.0 L228,23.3 L230,30.0 L232,36.6 L234,40.6 L236,40.5 L238,36.4 L240,30.0 L242,23.7 L244,19.9 L246,20.0 L248,23.9 L250,30.0 L252,36.0 L254,39.5 L256,39.4 L258,35.8 L260,30.0 L262,24.4 L264,21.0 L266,21.1 L268,24.6 L270,30.0 L272,35.3 L274,38.5 L276,38.4 L278,35.1 L280,30.0 L282,25.0 L284,22.0 L286,22.1 L288,25.2 L290,30.0 L292,34.7 L294,37.4 L296,37.3 L298,34.5 L300,30.0 L302,25.7 L304,23.1 L306,23.2 L308,25.9 L310,30.0 L312,34.0 L314,36.4 L316,36.3 L318,33.8 L320,30.0 L322,26.3 L324,24.1 L326,24.2 L328,26.5 L330,30.0 L332,33.4 L334,35.4 L336,35.2 L338,33.2 L340,30.0 L342,26.9 L344,25.2 L346,25.3 L348,27.1 L350,30.0 L352,32.7 L354,34.3 L356,34.2 L358,32.5 L360,30.0 L362,27.6 L364,26.2 L366,26.3 L368,27.8 L370,30.0 L372,32.1 L374,33.3 L376,33.2 L378,31.9 L380,30.0 L382,28.2 L384,27.3 L386,27.4 L388,28.4 L390,30.0 L392,31.4 L394,32.2 L396,32.1 L398,31.2 L400,30.0 L402,28.8 L404,27.9 L406,27.8 L408,28.6 L410,30.0 L412,31.6 L414,32.6 L416,32.7 L418,31.8 L420,30.0 L422,28.1 L424,26.8 L426,26.7 L428,27.9 L430,30.0 L432,32.2 L434,33.7 L436,33.8 L438,32.4 L440,30.0 L442,27.5 L444,25.8 L446,25.7 L448,27.3 L450,30.0 L452,32.9 L454,34.7 L456,34.8 L458,33.1 L460,30.0 L462,26.8 L464,24.8 L466,24.6 L468,26.6 L470,30.0 L472,33.5 L474,35.8 L476,35.9 L478,33.7 L480,30.0 L482,26.2 L484,23.7 L486,23.6 L488,26.0 L490,30.0 L492,34.1 L494,36.8 L496,36.9 L498,34.3 L500,30.0 L502,25.5 L504,22.7 L506,22.6 L508,25.3 L510,30.0 L512,34.8 L514,37.9 L516,38.0 L518,35.0 L520,30.0 L522,24.9 L524,21.6 L526,21.5 L528,24.7 L530,30.0 L532,35.4 L534,38.9 L536,39.0 L538,35.6 L540,30.0 L542,24.2 L544,20.6 L546,20.5 L548,24.0 L550,30.0 L552,36.1 L554,40.0 L556,40.1 L558,36.3 L560,30.0 L562,23.6 L564,19.5 L566,19.4 L568,23.4 L570,30.0 L572,36.7 L574,41.0 L576,41.1 L578,36.9 L580,30.0 L582,22.9 L584,18.5 L586,18.4 L588,22.7 L590,30.0 L592,37.4 L594,42.0 L596,42.2 L598,37.6 L600,30.0 L602,22.3 L604,17.4 L606,17.3 L608,22.1 L610,30.0 L612,38.0 L614,43.1 L616,43.2 L618,38.2 L620,30.0 L622,21.6 L624,16.4 L626,16.3 L628,21.5 L630,30.0 L632,38.7 L634,44.1 L636,44.2 L638,38.9 L640,30.0 L642,21.0 L644,15.3 L646,15.2 L648,20.8 L650,30.0 L652,39.3 L654,45.2 L656,45.3 L658,39.5 L660,30.0 L662,20.4 L664,14.3 L666,14.2 L668,20.2 L670,30.0 L672,40.0 L674,46.2 L676,46.3 L678,40.2 L680,30.0 L682,19.7 L684,13.2 L686,13.1 L688,19.5 L690,30.0 L692,40.6 L694,47.3 L696,47.4 L698,40.8 L700,30.0 L702,19.1 L704,12.2 L706,12.1 L708,18.9 L710,30.0 L712,41.3 L714,48.3 L716,48.4 L718,41.5 L720,30.0 L722,18.4 L724,11.2 L726,11.0 L728,18.2 L730,30.0 L732,41.9 L734,49.4 L736,49.5 L738,42.1 L740,30.0 L742,17.8 L744,10.1 L746,10.0 L748,17.6 L750,30.0 L752,42.6 L754,50.4 L756,50.5 L758,42.7 L760,30.0 L762,17.1 L764,9.1 L766,9.0 L768,16.9 L770,30.0 L772,43.2 L774,51.5 L776,51.6 L778,43.4 L780,30.0 L782,16.5 L784,8.0 L786,7.9 L788,16.3 L790,30.0 L792,43.8 L794,52.5 L796,52.6 L798,44.0 L800,30.0;M0,54.0 L2,49.3 L4,37.3 L6,22.7 L8,10.9 L10,6.6 L12,11.1 L14,22.8 L16,37.1 L18,48.6 L20,52.9 L22,48.4 L24,37.0 L26,23.0 L28,11.8 L30,7.6 L32,12.0 L34,23.2 L36,36.8 L38,47.7 L40,51.8 L42,47.5 L44,36.7 L46,23.4 L48,12.7 L50,8.8 L52,12.9 L54,23.5 L56,36.5 L58,46.8 L60,50.7 L62,46.7 L64,36.3 L66,23.7 L68,13.6 L70,9.9 L72,13.8 L74,23.8 L76,36.1 L78,45.9 L80,49.6 L82,45.8 L84,36.0 L86,24.0 L88,14.5 L90,10.9 L92,14.7 L94,24.2 L96,35.8 L98,45.1 L100,48.5 L102,44.9 L104,35.6 L106,24.4 L108,15.4 L110,12.1 L112,15.6 L114,24.5 L116,35.4 L118,44.2 L120,47.4 L122,44.0 L124,35.3 L126,24.7 L128,16.3 L130,13.1 L132,16.5 L134,24.9 L136,35.1 L138,43.3 L140,46.3 L142,43.1 L144,35.0 L146,25.1 L148,17.2 L150,14.2 L152,17.3 L154,25.2 L156,34.8 L158,42.4 L160,45.2 L162,42.2 L164,34.6 L166,25.4 L168,18.1 L170,15.4 L172,18.2 L174,25.5 L176,34.4 L178,41.5 L180,44.1 L182,41.3 L184,34.3 L186,25.7 L188,18.9 L190,16.4 L192,19.1 L194,25.9 L196,34.1 L198,40.6 L200,43.0 L202,40.4 L204,33.9 L206,26.1 L208,19.8 L210,17.6 L212,20.0 L214,26.2 L216,33.7 L218,39.7 L220,41.9 L222,39.5 L224,33.6 L226,26.4 L228,20.7 L230,18.6 L232,20.9 L234,26.6 L236,33.4 L238,38.8 L240,40.8 L242,38.6 L244,33.3 L246,26.8 L248,21.6 L250,19.8 L252,21.8 L254,26.9 L256,33.1 L258,37.9 L260,39.7 L262,37.8 L264,32.9 L266,27.1 L268,22.5 L270,20.9 L272,22.7 L274,27.2 L276,32.7 L278,37.0 L280,38.6 L282,36.9 L284,32.6 L286,27.4 L288,23.4 L290,21.9 L292,23.6 L294,27.6 L296,32.4 L298,36.2 L300,37.5 L302,36.0 L304,32.2 L306,27.8 L308,24.3 L310,23.1 L312,24.5 L314,27.9 L316,32.0 L318,35.3 L320,36.4 L322,35.1 L324,31.9 L326,28.1 L328,25.2 L330,24.1 L332,25.4 L334,28.3 L336,31.7 L338,34.4 L340,35.3 L342,34.2 L344,31.6 L346,28.5 L348,26.1 L350,25.2 L352,26.2 L354,28.6 L356,31.4 L358,33.5 L360,34.2 L362,33.3 L364,31.2 L366,28.8 L368,27.0 L370,26.4 L372,27.1 L374,28.9 L376,31.0 L378,32.6 L380,33.1 L382,32.4 L384,30.9 L386,29.1 L388,27.8 L390,27.4 L392,28.0 L394,29.3 L396,30.7 L398,31.7 L400,32.0 L402,31.7 L404,30.7 L406,29.3 L408,28.0 L410,27.4 L412,27.8 L414,29.1 L416,30.9 L418,32.4 L420,33.1 L422,32.6 L424,31.0 L426,28.9 L428,27.1 L430,26.4 L432,27.0 L434,28.8 L436,31.2 L438,33.3 L440,34.2 L442,33.5 L444,31.4 L446,28.6 L448,26.2 L450,25.2 L452,26.1 L454,28.5 L456,31.6 L458,34.2 L460,35.3 L462,34.4 L464,31.7 L466,28.3 L468,25.4 L470,24.1 L472,25.2 L474,28.1 L476,31.9 L478,35.1 L480,36.4 L482,35.3 L484,32.0 L486,27.9 L488,24.5 L490,23.1 L492,24.3 L494,27.8 L496,32.2 L498,36.0 L500,37.5 L502,36.2 L504,32.4 L506,27.6 L508,23.6 L510,21.9 L512,23.4 L514,27.4 L516,32.6 L518,36.9 L520,38.6 L522,37.0 L524,32.7 L526,27.2 L528,22.7 L530,20.9 L532,22.5 L534,27.1 L536,32.9 L538,37.8 L540,39.7 L542,37.9 L544,33.1 L546,26.9 L548,21.8 L550,19.8 L552,21.6 L554,26.8 L556,33.3 L558,38.6 L560,40.8 L562,38.8 L564,33.4 L566,26.6 L568,20.9 L570,18.6 L572,20.7 L574,26.4 L576,33.6 L578,39.5 L580,41.9 L582,39.7 L584,33.7 L586,26.2 L588,20.0 L590,17.6 L592,19.8 L594,26.1 L596,33.9 L598,40.4 L600,43.0 L602,40.6 L604,34.1 L606,25.9 L608,19.1 L610,16.4 L612,18.9 L614,25.7 L616,34.3 L618,41.3 L620,44.1 L622,41.5 L624,34.4 L626,25.5 L628,18.2 L630,15.4 L632,18.1 L634,25.4 L636,34.6 L638,42.2 L640,45.2 L642,42.4 L644,34.8 L646,25.2 L648,17.3 L650,14.2 L652,17.2 L654,25.1 L656,35.0 L658,43.1 L660,46.3 L662,43.3 L664,35.1 L666,24.9 L668,16.5 L670,13.1 L672,16.3 L674,24.7 L676,35.3 L678,44.0 L680,47.4 L682,44.2 L684,35.4 L686,24.5 L688,15.6 L690,12.1 L692,15.4 L694,24.4 L696,35.6 L698,44.9 L700,48.5 L702,45.1 L704,35.8 L706,24.2 L708,14.7 L710,10.9 L712,14.5 L714,24.0 L716,36.0 L718,45.8 L720,49.6 L722,45.9 L724,36.1 L726,23.8 L728,13.8 L730,9.9 L732,13.6 L734,23.7 L736,36.3 L738,46.7 L740,50.7 L742,46.8 L744,36.5 L746,23.5 L748,12.9 L750,8.8 L752,12.7 L754,23.4 L756,36.7 L758,47.5 L760,51.8 L762,47.7 L764,36.8 L766,23.2 L768,12.0 L770,7.6 L772,11.8 L774,23.0 L776,37.0 L778,48.4 L780,52.9 L782,48.6 L784,37.1 L786,22.8 L788,11.1 L790,6.6 L792,10.9 L794,22.7 L796,37.3 L798,49.3 L800,54.0;M0,30.0 L2,44.0 L4,52.6 L6,52.5 L8,43.8 L10,30.0 L12,16.3 L14,7.9 L16,8.0 L18,16.5 L20,30.0 L22,43.4 L24,51.6 L26,51.5 L28,43.2 L30,30.0 L32,16.9 L34,9.0 L36,9.1 L38,17.1 L40,30.0 L42,42.7 L44,50.5 L46,50.4 L48,42.6 L50,30.0 L52,17.6 L54,10.0 L56,10.1 L58,17.8 L60,30.0 L62,42.1 L64,49.5 L66,49.4 L68,41.9 L70,30.0 L72,18.2 L74,11.0 L76,11.2 L78,18.4 L80,30.0 L82,41.5 L84,48.4 L86,48.3 L88,41.3 L90,30.0 L92,18.9 L94,12.1 L96,12.2 L98,19.1 L100,30.0 L102,40.8 L104,47.4 L106,47.3 L108,40.6 L110,30.0 L112,19.5 L114,13.1 L116,13.2 L118,19.7 L120,30.0 L122,40.2 L124,46.3 L126,46.2 L128,40.0 L130,30.0 L132,20.2 L134,14.2 L136,14.3 L138,20.4 L140,30.0 L142,39.5 L144,45.3 L146,45.2 L148,39.3 L150,30.0 L152,20.8 L154,15.2 L156,15.3 L158,21.0 L160,30.0 L162,38.9 L164,44.2 L166,44.1 L168,38.7 L170,30.0 L172,21.5 L174,16.3 L176,16.4 L178,21.6 L180,30.0 L182,38.2 L184,43.2 L186,43.1 L188,38.0 L190,30.0 L192,22.1 L194,17.3 L196,17.4 L198,22.3 L200,30.0 L202,37.6 L204,42.2 L206,42.0 L208,37.4 L210,30.0 L212,22.7 L214,18.4 L216,18.5 L218,22.9 L220,30.0 L222,36.9 L224,41.1 L226,41.0 L228,36.7 L230,30.0 L232,23.4 L234,19.4 L236,19.5 L238,23.6 L240,30.0 L242,36.3 L244,40.1 L246,40.0 L248,36.1 L250,30.0 L252,24.0 L254,20.5 L256,20.6 L258,24.2 L260,30.0 L262,35.6 L264,39.0 L266,38.9 L268,35.4 L270,30.0 L272,24.7 L274,21.5 L276,21.6 L278,24.9 L280,30.0 L282,35.0 L284,38.0 L286,37.9 L288,34.8 L290,30.0 L292,25.3 L294,22.6 L296,22.7 L298,25.5 L300,30.0 L302,34.3 L304,36.9 L306,36.8 L308,34.1 L310,30.0 L312,26.0 L314,23.6 L316,23.7 L318,26.2 L320,30.0 L322,33.7 L324,35.9 L326,35.8 L328,33.5 L330,30.0 L332,26.6 L334,24.6 L336,24.8 L338,26.8 L340,30.0 L342,33.1 L344,34.8 L346,34.7 L348,32.9 L350,30.0 L352,27.3 L354,25.7 L356,25.8 L358,27.5 L360,30.0 L362,32.4 L364,33.8 L366,33.7 L368,32.2 L370,30.0 L372,27.9 L374,26.7 L376,26.8 L378,28.1 L380,30.0 L382,31.8 L384,32.7 L386,32.6 L388,31.6 L390,30.0 L392,28.6 L394,27.8 L396,27.9 L398,28.8 L400,30.0 L402,31.2 L404,32.1 L406,32.2 L408,31.4 L410,30.0 L412,28.4 L414,27.4 L416,27.3 L418,28.2 L420,30.0 L422,31.9 L424,33.2 L426,33.3 L428,32.1 L430,30.0 L432,27.8 L434,26.3 L436,26.2 L438,27.6 L440,30.0 L442,32.5 L444,34.2 L446,34.3 L448,32.7 L450,30.0 L452,27.1 L454,25.3 L456,25.2 L458,26.9 L460,30.0 L462,33.2 L464,35.2 L466,35.4 L468,33.4 L470,30.0 L472,26.5 L474,24.2 L476,24.1 L478,26.3 L480,30.0 L482,33.8 L484,36.3 L486,36.4 L488,34.0 L490,30.0 L492,25.9 L494,23.2 L496,23.1 L498,25.7 L500,30.0 L502,34.5 L504,37.3 L506,37.4 L508,34.7 L510,30.0 L512,25.2 L514,22.1 L516,22.0 L518,25.0 L520,30.0 L522,35.1 L524,38.4 L526,38.5 L528,35.3 L530,30.0 L532,24.6 L534,21.1 L536,21.0 L538,24.4 L540,30.0 L542,35.8 L544,39.4 L546,39.5 L548,36.0 L550,30.0 L552,23.9 L554,20.0 L556,19.9 L558,23.7 L560,30.0 L562,36.4 L564,40.5 L566,40.6 L568,36.6 L570,30.0 L572,23.3 L574,19.0 L576,18.9 L578,23.1 L580,30.0 L582,37.1 L584,41.5 L586,41.6 L588,37.3 L590,30.0 L592,22.6 L594,18.0 L596,17.8 L598,22.4 L600,30.0 L602,37.7 L604,42.6 L606,42.7 L608,37.9 L610,30.0 L612,22.0 L614,16.9 L616,16.8 L618,21.8 L620,30.0 L622,38.4 L624,43.6 L626,43.7 L628,38.5 L630,30.0 L632,21.3 L634,15.9 L636,15.8 L638,21.1 L640,30.0 L642,39.0 L644,44.7 L646,44.8 L648,39.2 L650,30.0 L652,20.7 L654,14.8 L656,14.7 L658,20.5 L660,30.0 L662,39.6 L664,45.7 L666,45.8 L668,39.8 L670,30.0 L672,20.0 L674,13.8 L676,13.7 L678,19.8 L680,30.0 L682,40.3 L684,46.8 L686,46.9 L688,40.5 L690,30.0 L692,19.4 L694,12.7 L696,12.6 L698,19.2 L700,30.0 L702,40.9 L704,47.8 L706,47.9 L708,41.1 L710,30.0 L712,18.7 L714,11.7 L716,11.6 L718,18.5 L720,30.0 L722,41.6 L724,48.8 L726,49.0 L728,41.8 L730,30.0 L732,18.1 L734,10.6 L736,10.5 L738,17.9 L740,30.0 L742,42.2 L744,49.9 L746,50.0 L748,42.4 L750,30.0 L752,17.4 L754,9.6 L756,9.5 L758,17.3 L760,30.0 L762,42.9 L764,50.9 L766,51.0 L768,43.1 L770,30.0 L772,16.8 L774,8.5 L776,8.4 L778,16.6 L780,30.0 L782,43.5 L784,52.0 L786,52.1 L788,43.7 L790,30.0 L792,16.2 L794,7.5 L796,7.4 L798,16.0 L800,30.0" 
             dur="4s" 
             repeatCount="indefinite"
             calcMode="linear"/>
  </path>
</svg>